<svg width="26" height="26" viewBox="0 0 26 26" fill="none" xmlns="http://www.w3.org/2000/svg">
<path d="M1.89585 3.24996C1.78818 3.24844 1.68129 3.26833 1.58138 3.30848C1.48147 3.34862 1.39053 3.40823 1.31385 3.48383C1.23718 3.55943 1.17629 3.64951 1.13474 3.74885C1.09318 3.84818 1.07178 3.95478 1.07178 4.06246C1.07178 4.17014 1.09318 4.27674 1.13474 4.37607C1.17629 4.47541 1.23718 4.56549 1.31385 4.64109C1.39053 4.71669 1.48147 4.77629 1.58138 4.81644C1.68129 4.85659 1.78818 4.87648 1.89585 4.87496H3.38861C3.7829 4.87496 4.11158 5.14738 4.1863 5.53512L4.34816 6.38147L6.09482 15.5549C6.41068 17.21 7.86888 18.4166 9.5543 18.4166H19.6957C21.3811 18.4166 22.84 17.2104 23.1552 15.5549L24.9019 6.38147C24.9243 6.26402 24.9205 6.14307 24.8908 6.02725C24.861 5.91143 24.8061 5.80359 24.7299 5.71144C24.6538 5.61929 24.5582 5.54508 24.45 5.49412C24.3418 5.44316 24.2238 5.4167 24.1042 5.41663H5.81764L5.78273 5.23149C5.56437 4.08712 4.55379 3.24996 3.38861 3.24996H1.89585ZM6.12762 7.04163H23.1224L21.5588 15.2513C21.3876 16.1502 20.6114 16.7916 19.6957 16.7916H9.5543C8.63895 16.7916 7.86327 16.1502 7.69126 15.2513V15.2502L6.12762 7.04163ZM10.8333 19.5C10.4024 19.5 9.98905 19.6712 9.6843 19.9759C9.37955 20.2807 9.20835 20.694 9.20835 21.125C9.20835 21.5559 9.37955 21.9693 9.6843 22.274C9.98905 22.5788 10.4024 22.75 10.8333 22.75C11.2643 22.75 11.6777 22.5788 11.9824 22.274C12.2871 21.9693 12.4583 21.5559 12.4583 21.125C12.4583 20.694 12.2871 20.2807 11.9824 19.9759C11.6777 19.6712 11.2643 19.5 10.8333 19.5ZM18.4167 19.5C17.9857 19.5 17.5724 19.6712 17.2676 19.9759C16.9629 20.2807 16.7917 20.694 16.7917 21.125C16.7917 21.5559 16.9629 21.9693 17.2676 22.274C17.5724 22.5788 17.9857 22.75 18.4167 22.75C18.8477 22.75 19.261 22.5788 19.5657 22.274C19.8705 21.9693 20.0417 21.5559 20.0417 21.125C20.0417 20.694 19.8705 20.2807 19.5657 19.9759C19.261 19.6712 18.8477 19.5 18.4167 19.5Z" fill="#182A42"/>
</svg>
